{"asset":{"version":"2.0","generator":"Blockbench 4.10.4 glTF exporter"},"scenes":[{"nodes":[18],"name":"blockbench_export"}],"scene":0,"nodes":[{"translation":[0,-1.125,0],"name":"Head","mesh":0},{"translation":[0,-1.125,0],"name":"Hat Layer","mesh":1},{"rotation":[0.06540312923014306,0,0,0.9978589232386035],"translation":[0,0.65625,0.171875],"name":"Head","children":[0,1]},{"translation":[0,-0.5625,0],"name":"Body","mesh":2},{"translation":[0,-0.5625,0],"name":"Body Layer","mesh":3},{"rotation":[-0.06540312923014306,0,0,0.9978589232386035],"translation":[0,0.109375,0.28125],"name":"Body","children":[3,4]},{"translation":[-0.234375,-1.03125,0],"name":"Right Arm","mesh":4},{"translation":[-0.234375,-1.03125,0],"name":"Right Arm Layer","mesh":5},{"rotation":[0.27480241459043797,0.5088051754706644,0.10120764198789234,0.8095418084032362],"translation":[0.234375,0.5625,0.171875],"name":"RightArm","children":[6,7]},{"translation":[0.234375,-1.03125,0],"name":"Left Arm","mesh":6},{"translation":[0.234375,-1.03125,0],"name":"Left Arm Layer","mesh":7},{"rotation":[0.2250006746503276,-0.5626394442576659,-0.1473155916416071,0.7817350373570354],"translation":[-0.234375,0.5625,0.21875],"name":"LeftArm","children":[9,10]},{"translation":[-0.08906249999999999,-0.5625,0],"name":"Right Leg","mesh":8},{"translation":[-0.08906249999999999,-0.5625,0],"name":"Right Leg Layer","mesh":9},{"rotation":[0.6963642403200183,-1.887379141862766e-15,0.12278780396897276,0.7071067811865482],"translation":[0.08906249999999999,0.09375,0.3125],"name":"RightLeg","children":[12,13]},{"translation":[0.08906249999999999,-0.5625,0],"name":"Left Leg","mesh":10},{"translation":[0.08906249999999999,-0.5625,0],"name":"Left Leg Layer","mesh":11},{"rotation":[0.693519922661073,0.04624699618945326,-0.13794968964147225,0.7055928112895238],"translation":[-0.08906249999999999,0.09375,0.328125],"name":"LeftLeg","children":[15,16]},{"children":[2,5,8,11,14,17]}],"bufferViews":[{"buffer":0,"byteOffset":0,"byteLength":288,"target":34962,"byteStride":12},{"buffer":0,"byteOffset":288,"byteLength":288,"target":34962,"byteStride":12},{"buffer":0,"byteOffset":576,"byteLength":192,"target":34962,"byteStride":8},{"buffer":0,"byteOffset":768,"byteLength":72,"target":34963},{"buffer":0,"byteOffset":840,"byteLength":288,"target":34962,"byteStride":12},{"buffer":0,"byteOffset":1128,"byteLength":288,"target":34962,"byteStride":12},{"buffer":0,"byteOffset":1416,"byteLength":192,"target":34962,"byteStride":8},{"buffer":0,"byteOffset":1608,"byteLength":72,"target":34963},{"buffer":0,"byteOffset":1680,"byteLength":288,"target":34962,"byteStride":12},{"buffer":0,"byteOffset":1968,"byteLength":288,"target":34962,"byteStride":12},{"buffer":0,"byteOffset":2256,"byteLength":192,"target":34962,"byteStride":8},{"buffer":0,"byteOffset":2448,"byteLength":72,"target":34963},{"buffer":0,"byteOffset":2520,"byteLength":288,"target":34962,"byteStride":12},{"buffer":0,"byteOffset":2808,"byteLength":288,"target":34962,"byteStride":12},{"buffer":0,"byteOffset":3096,"byteLength":192,"target":34962,"byteStride":8},{"buffer":0,"byteOffset":3288,"byteLength":72,"target":34963},{"buffer":0,"byteOffset":3360,"byteLength":288,"target":34962,"byteStride":12},{"buffer":0,"byteOffset":3648,"byteLength":288,"target":34962,"byteStride":12},{"buffer":0,"byteOffset":3936,"byteLength":192,"target":34962,"byteStride":8},{"buffer":0,"byteOffset":4128,"byteLength":72,"target":34963},{"buffer":0,"byteOffset":4200,"byteLength":288,"target":34962,"byteStride":12},{"buffer":0,"byteOffset":4488,"byteLength":288,"target":34962,"byteStride":12},{"buffer":0,"byteOffset":4776,"byteLength":192,"target":34962,"byteStride":8},{"buffer":0,"byteOffset":4968,"byteLength":72,"target":34963},{"buffer":0,"byteOffset":5040,"byteLength":288,"target":34962,"byteStride":12},{"buffer":0,"byteOffset":5328,"byteLength":288,"target":34962,"byteStride":12},{"buffer":0,"byteOffset":5616,"byteLength":192,"target":34962,"byteStride":8},{"buffer":0,"byteOffset":5808,"byteLength":72,"target":34963},{"buffer":0,"byteOffset":5880,"byteLength":288,"target":34962,"byteStride":12},{"buffer":0,"byteOffset":6168,"byteLength":288,"target":34962,"byteStride":12},{"buffer":0,"byteOffset":6456,"byteLength":192,"target":34962,"byteStride":8},{"buffer":0,"byteOffset":6648,"byteLength":72,"target":34963},{"buffer":0,"byteOffset":6720,"byteLength":288,"target":34962,"byteStride":12},{"buffer":0,"byteOffset":7008,"byteLength":288,"target":34962,"byteStride":12},{"buffer":0,"byteOffset":7296,"byteLength":192,"target":34962,"byteStride":8},{"buffer":0,"byteOffset":7488,"byteLength":72,"target":34963},{"buffer":0,"byteOffset":7560,"byteLength":288,"target":34962,"byteStride":12},{"buffer":0,"byteOffset":7848,"byteLength":288,"target":34962,"byteStride":12},{"buffer":0,"byteOffset":8136,"byteLength":192,"target":34962,"byteStride":8},{"buffer":0,"byteOffset":8328,"byteLength":72,"target":34963},{"buffer":0,"byteOffset":8400,"byteLength":288,"target":34962,"byteStride":12},{"buffer":0,"byteOffset":8688,"byteLength":288,"target":34962,"byteStride":12},{"buffer":0,"byteOffset":8976,"byteLength":192,"target":34962,"byteStride":8},{"buffer":0,"byteOffset":9168,"byteLength":72,"target":34963},{"buffer":0,"byteOffset":9240,"byteLength":288,"target":34962,"byteStride":12},{"buffer":0,"byteOffset":9528,"byteLength":288,"target":34962,"byteStride":12},{"buffer":0,"byteOffset":9816,"byteLength":192,"target":34962,"byteStride":8},{"buffer":0,"byteOffset":10008,"byteLength":72,"target":34963},{"buffer":0,"byteOffset":10080,"byteLength":208},{"buffer":0,"byteOffset":10288,"byteLength":832},{"buffer":0,"byteOffset":11120,"byteLength":208},{"buffer":0,"byteOffset":11328,"byteLength":624},{"buffer":0,"byteOffset":11952,"byteLength":208},{"buffer":0,"byteOffset":12160,"byteLength":832},{"buffer":0,"byteOffset":12992,"byteLength":208},{"buffer":0,"byteOffset":13200,"byteLength":832},{"buffer":0,"byteOffset":14032,"byteLength":208},{"buffer":0,"byteOffset":14240,"byteLength":624},{"buffer":0,"byteOffset":14864,"byteLength":208},{"buffer":0,"byteOffset":15072,"byteLength":832},{"buffer":0,"byteOffset":15904,"byteLength":208},{"buffer":0,"byteOffset":16112,"byteLength":624},{"buffer":0,"byteOffset":16736,"byteLength":204},{"buffer":0,"byteOffset":16940,"byteLength":816},{"buffer":0,"byteOffset":17756,"byteLength":204},{"buffer":0,"byteOffset":17960,"byteLength":816},{"buffer":0,"byteOffset":18776,"byteLength":68},{"buffer":0,"byteOffset":18844,"byteLength":272},{"buffer":0,"byteOffset":19116,"byteLength":68},{"buffer":0,"byteOffset":19184,"byteLength":204},{"buffer":0,"byteOffset":19388,"byteLength":52},{"buffer":0,"byteOffset":19440,"byteLength":208},{"buffer":0,"byteOffset":19648,"byteLength":24},{"buffer":0,"byteOffset":19672,"byteLength":72},{"buffer":0,"byteOffset":19744,"byteLength":56},{"buffer":0,"byteOffset":19800,"byteLength":224},{"buffer":0,"byteOffset":20024,"byteLength":56},{"buffer":0,"byteOffset":20080,"byteLength":168},{"buffer":0,"byteOffset":20248,"byteLength":60},{"buffer":0,"byteOffset":20308,"byteLength":240},{"buffer":0,"byteOffset":20548,"byteLength":60},{"buffer":0,"byteOffset":20608,"byteLength":180},{"buffer":0,"byteOffset":20788,"byteLength":52},{"buffer":0,"byteOffset":20840,"byteLength":208},{"buffer":0,"byteOffset":21048,"byteLength":52},{"buffer":0,"byteOffset":21100,"byteLength":156},{"buffer":0,"byteOffset":21256,"byteLength":52},{"buffer":0,"byteOffset":21308,"byteLength":208},{"buffer":0,"byteOffset":21516,"byteLength":52},{"buffer":0,"byteOffset":21568,"byteLength":156}],"buffers":[{"byteLength":21724,"uri":"data:application/octet-stream;base64,"}],"accessors":[{"bufferView":0,"componentType":5126,"count":24,"max":[0.1875,1.5,0.1875],"min":[-0.1875,1.125,-0.1875],"type":"VEC3"},{"bufferView":1,"componentType":5126,"count":24,"max":[1,1,1],"min":[-1,-1,-1],"type":"VEC3"},{"bufferView":2,"componentType":5126,"count":24,"max":[0.5,0.25],"min":[0,0],"type":"VEC2"},{"bufferView":3,"componentType":5123,"count":36,"max":[23],"min":[0],"type":"SCALAR"},{"bufferView":4,"componentType":5126,"count":24,"max":[0.2109375,1.5234375,0.2109375],"min":[-0.2109375,1.1015625,-0.2109375],"type":"VEC3"},{"bufferView":5,"componentType":5126,"count":24,"max":[1,1,1],"min":[-1,-1,-1],"type":"VEC3"},{"bufferView":6,"componentType":5126,"count":24,"max":[1,0.25],"min":[0.5,0],"type":"VEC2"},{"bufferView":7,"componentType":5123,"count":36,"max":[23],"min":[0],"type":"SCALAR"},{"bufferView":8,"componentType":5126,"count":24,"max":[0.1875,1.125,0.09375],"min":[-0.1875,0.5625,-0.09375],"type":"VEC3"},{"bufferView":9,"componentType":5126,"count":24,"max":[1,1,1],"min":[-1,-1,-1],"type":"VEC3"},{"bufferView":10,"componentType":5126,"count":24,"max":[0.625,0.5],"min":[0.25,0.25],"type":"VEC2"},{"bufferView":11,"componentType":5123,"count":36,"max":[23],"min":[0],"type":"SCALAR"},{"bufferView":12,"componentType":5126,"count":24,"max":[0.19921875,1.13671875,0.10546875],"min":[-0.19921875,0.55078125,-0.10546875],"type":"VEC3"},{"bufferView":13,"componentType":5126,"count":24,"max":[1,1,1],"min":[-1,-1,-1],"type":"VEC3"},{"bufferView":14,"componentType":5126,"count":24,"max":[0.625,0.75],"min":[0.25,0.5],"type":"VEC2"},{"bufferView":15,"componentType":5123,"count":36,"max":[23],"min":[0],"type":"SCALAR"},{"bufferView":16,"componentType":5126,"count":24,"max":[0.375,1.125,0.09375],"min":[0.1875,0.5625,-0.09375],"type":"VEC3"},{"bufferView":17,"componentType":5126,"count":24,"max":[1,1,1],"min":[-1,-1,-1],"type":"VEC3"},{"bufferView":18,"componentType":5126,"count":24,"max":[0.875,0.5],"min":[0.625,0.25],"type":"VEC2"},{"bufferView":19,"componentType":5123,"count":36,"max":[23],"min":[0],"type":"SCALAR"},{"bufferView":20,"componentType":5126,"count":24,"max":[0.38671875,1.13671875,0.10546875],"min":[0.17578125,0.55078125,-0.10546875],"type":"VEC3"},{"bufferView":21,"componentType":5126,"count":24,"max":[1,1,1],"min":[-1,-1,-1],"type":"VEC3"},{"bufferView":22,"componentType":5126,"count":24,"max":[0.875,0.75],"min":[0.625,0.5],"type":"VEC2"},{"bufferView":23,"componentType":5123,"count":36,"max":[23],"min":[0],"type":"SCALAR"},{"bufferView":24,"componentType":5126,"count":24,"max":[-0.1875,1.125,0.09375],"min":[-0.375,0.5625,-0.09375],"type":"VEC3"},{"bufferView":25,"componentType":5126,"count":24,"max":[1,1,1],"min":[-1,-1,-1],"type":"VEC3"},{"bufferView":26,"componentType":5126,"count":24,"max":[0.75,1],"min":[0.5,0.75],"type":"VEC2"},{"bufferView":27,"componentType":5123,"count":36,"max":[23],"min":[0],"type":"SCALAR"},{"bufferView":28,"componentType":5126,"count":24,"max":[-0.17578125,1.13671875,0.10546875],"min":[-0.38671875,0.55078125,-0.10546875],"type":"VEC3"},{"bufferView":29,"componentType":5126,"count":24,"max":[1,1,1],"min":[-1,-1,-1],"type":"VEC3"},{"bufferView":30,"componentType":5126,"count":24,"max":[1,1],"min":[0.75,0.75],"type":"VEC2"},{"bufferView":31,"componentType":5123,"count":36,"max":[23],"min":[0],"type":"SCALAR"},{"bufferView":32,"componentType":5126,"count":24,"max":[0.18281249701976776,0.5625,0.09375],"min":[-0.004687500186264515,0,-0.09375],"type":"VEC3"},{"bufferView":33,"componentType":5126,"count":24,"max":[1,1,1],"min":[-1,-1,-1],"type":"VEC3"},{"bufferView":34,"componentType":5126,"count":24,"max":[0.25,0.5],"min":[0,0.25],"type":"VEC2"},{"bufferView":35,"componentType":5123,"count":36,"max":[23],"min":[0],"type":"SCALAR"},{"bufferView":36,"componentType":5126,"count":24,"max":[0.19453124701976776,0.57421875,0.10546875],"min":[-0.01640624925494194,-0.01171875,-0.10546875],"type":"VEC3"},{"bufferView":37,"componentType":5126,"count":24,"max":[1,1,1],"min":[-1,-1,-1],"type":"VEC3"},{"bufferView":38,"componentType":5126,"count":24,"max":[0.25,0.75],"min":[0,0.5],"type":"VEC2"},{"bufferView":39,"componentType":5123,"count":36,"max":[23],"min":[0],"type":"SCALAR"},{"bufferView":40,"componentType":5126,"count":24,"max":[0.004687500186264515,0.5625,0.09375],"min":[-0.18281249701976776,0,-0.09375],"type":"VEC3"},{"bufferView":41,"componentType":5126,"count":24,"max":[1,1,1],"min":[-1,-1,-1],"type":"VEC3"},{"bufferView":42,"componentType":5126,"count":24,"max":[0.5,1],"min":[0.25,0.75],"type":"VEC2"},{"bufferView":43,"componentType":5123,"count":36,"max":[23],"min":[0],"type":"SCALAR"},{"bufferView":44,"componentType":5126,"count":24,"max":[0.01640624925494194,0.57421875,0.10546875],"min":[-0.19453124701976776,-0.01171875,-0.10546875],"type":"VEC3"},{"bufferView":45,"componentType":5126,"count":24,"max":[1,1,1],"min":[-1,-1,-1],"type":"VEC3"},{"bufferView":46,"componentType":5126,"count":24,"max":[0.25,1],"min":[0,0.75],"type":"VEC2"},{"bufferView":47,"componentType":5123,"count":36,"max":[23],"min":[0],"type":"SCALAR"},{"bufferView":48,"componentType":5126,"count":52,"max":[3],"min":[0],"type":"SCALAR"},{"bufferView":49,"componentType":5126,"count":52,"max":[0.06540261954069138,0.002050536684691906,0.03128514438867569,0.9978511929512024],"min":[0.06495960801839828,-0.007603858131915331,-0.11601245403289795,0.9910920858383179],"type":"VEC4"},{"bufferView":50,"componentType":5126,"count":52,"max":[3],"min":[0],"type":"SCALAR"},{"bufferView":51,"componentType":5126,"count":52,"max":[0.04897617548704147,0.658203125,0.171875],"min":[-0.046875,0.640625,0.171875],"type":"VEC3"},{"bufferView":52,"componentType":5126,"count":52,"max":[3],"min":[0],"type":"SCALAR"},{"bufferView":53,"componentType":5126,"count":52,"max":[-0.06538698077201843,0.0014532305067405105,0.02217201329767704,0.9978589415550232],"min":[-0.06540312618017197,-0.0014532305067405105,-0.02217201329767704,0.9976125955581665],"type":"VEC4"},{"bufferView":54,"componentType":5126,"count":52,"max":[3],"min":[0],"type":"SCALAR"},{"bufferView":55,"componentType":5126,"count":52,"max":[0.40450772643089294,0.5097122192382812,0.20369113981723785,0.8098813891410828],"min":[0.27453240752220154,0.4821185767650604,0.09877592325210571,0.748062789440155],"type":"VEC4"},{"bufferView":56,"componentType":5126,"count":52,"max":[3],"min":[0],"type":"SCALAR"},{"bufferView":57,"componentType":5126,"count":52,"max":[0.296875,0.5626136064529419,0.171875],"min":[0.2266167551279068,0.4976179301738739,0.171875],"type":"VEC3"},{"bufferView":58,"componentType":5126,"count":52,"max":[3],"min":[0],"type":"SCALAR"},{"bufferView":59,"componentType":5126,"count":52,"max":[0.4114396274089813,-0.47251877188682556,-0.14665816724300385,0.7824963927268982],"min":[0.21972715854644775,-0.565004825592041,-0.2818438410758972,0.732353925704956],"type":"VEC4"},{"bufferView":60,"componentType":5126,"count":52,"max":[3],"min":[0],"type":"SCALAR"},{"bufferView":61,"componentType":5126,"count":52,"max":[-0.200836181640625,0.564788818359375,0.21875],"min":[-0.2972344160079956,0.4685872495174408,0.21875],"type":"VEC3"},{"bufferView":62,"componentType":5126,"count":51,"max":[3],"min":[0],"type":"SCALAR"},{"bufferView":63,"componentType":5126,"count":51,"max":[0.6963642239570618,-1.887379141862766e-15,0.12278780341148376,0.7117897272109985],"min":[0.6957014799118042,-0.030374981462955475,0.09182737022638321,0.7071067690849304],"type":"VEC4"},{"bufferView":64,"componentType":5126,"count":51,"max":[3],"min":[0],"type":"SCALAR"},{"bufferView":65,"componentType":5126,"count":51,"max":[0.6935199499130249,0.09150635451078415,-0.09150635451078415,0.7131044268608093],"min":[0.6890103220939636,0.04624699801206589,-0.13794969022274017,0.7055928111076355],"type":"VEC4"},{"bufferView":66,"componentType":5126,"count":17,"max":[1],"min":[0],"type":"SCALAR"},{"bufferView":67,"componentType":5126,"count":17,"max":[0.06540312618017197,0,0,0.9997619986534119],"min":[-0.13052618503570557,0,0,0.9914448857307434],"type":"VEC4"},{"bufferView":68,"componentType":5126,"count":17,"max":[1],"min":[0],"type":"SCALAR"},{"bufferView":69,"componentType":5126,"count":17,"max":[0,0.671875,0.25],"min":[0,0.609375,0.140625],"type":"VEC3"},{"bufferView":70,"componentType":5126,"count":13,"max":[0.75],"min":[0],"type":"SCALAR"},{"bufferView":71,"componentType":5126,"count":13,"max":[0,0,0,1],"min":[-0.13052618503570557,0,0,0.9914448857307434],"type":"VEC4"},{"bufferView":72,"componentType":5126,"count":6,"max":[0.25],"min":[0],"type":"SCALAR"},{"bufferView":73,"componentType":5126,"count":6,"max":[0,0.109375,0.328125],"min":[0,0.078125,0.28125],"type":"VEC3"},{"bufferView":74,"componentType":5126,"count":14,"max":[0.8333333134651184],"min":[0],"type":"SCALAR"},{"bufferView":75,"componentType":5126,"count":14,"max":[0.5174469947814941,0.5335631966590881,0.30379346013069153,0.8770100474357605],"min":[0.27480241656303406,0.19509445130825043,0.10120764374732971,0.7720199823379517],"type":"VEC4"},{"bufferView":76,"componentType":5126,"count":14,"max":[0.8333333134651184],"min":[0],"type":"SCALAR"},{"bufferView":77,"componentType":5126,"count":14,"max":[0.234375,0.5682870149612427,0.28125],"min":[0.234375,0.484375,0.125],"type":"VEC3"},{"bufferView":78,"componentType":5126,"count":15,"max":[0.8333333134651184],"min":[0],"type":"SCALAR"},{"bufferView":79,"componentType":5126,"count":15,"max":[0.4667440354824066,-0.14501553773880005,-0.1473155915737152,0.8774542808532715],"min":[0.22500067949295044,-0.5649341344833374,-0.3439871370792389,0.7341657280921936],"type":"VEC4"},{"bufferView":80,"componentType":5126,"count":15,"max":[0.8333333134651184],"min":[0],"type":"SCALAR"},{"bufferView":81,"componentType":5126,"count":15,"max":[-0.234375,0.5648148059844971,0.28125],"min":[-0.234375,0.453125,0.1875],"type":"VEC3"},{"bufferView":82,"componentType":5126,"count":13,"max":[0.6666666865348816],"min":[0],"type":"SCALAR"},{"bufferView":83,"componentType":5126,"count":13,"max":[0.7692058086395264,0.01336752437055111,0.12278780341148376,0.7071067690849304],"min":[0.6963642239570618,-1.887379141862766e-15,0.12205799669027328,0.6270929574966431],"type":"VEC4"},{"bufferView":84,"componentType":5126,"count":13,"max":[0.6666666865348816],"min":[0],"type":"SCALAR"},{"bufferView":85,"componentType":5126,"count":13,"max":[0.08906249701976776,0.109375,0.3626708984375],"min":[0.08906249701976776,0.078125,0.3125],"type":"VEC3"},{"bufferView":86,"componentType":5126,"count":13,"max":[0.6666666865348816],"min":[0],"type":"SCALAR"},{"bufferView":87,"componentType":5126,"count":13,"max":[0.7796850800514221,0.05287802591919899,-0.13554635643959045,0.7383733987808228],"min":[0.6585103273391724,0.027845298871397972,-0.14280594885349274,0.6090338230133057],"type":"VEC4"},{"bufferView":88,"componentType":5126,"count":13,"max":[0.6666666865348816],"min":[0],"type":"SCALAR"},{"bufferView":89,"componentType":5126,"count":13,"max":[-0.08906249701976776,0.111328125,0.36168980598449707],"min":[-0.08906249701976776,0.09259258955717087,0.328125],"type":"VEC3"}],"materials":[{"pbrMetallicRoughness":{"metallicFactor":0,"roughnessFactor":1,"baseColorTexture":{"index":0}},"alphaMode":"MASK","alphaCutoff":0.05,"doubleSided":true}],"textures":[{"sampler":0,"source":0,"name":"_bendy659_.png"}],"samplers":[{"magFilter":9728,"minFilter":9728,"wrapS":33071,"wrapT":33071}],"images":[{"mimeType":"image/png","uri":"data:image/png;base64,"}],"meshes":[{"primitives":[{"mode":4,"attributes":{"POSITION":0,"NORMAL":1,"TEXCOORD_0":2},"indices":3,"material":0}]},{"primitives":[{"mode":4,"attributes":{"POSITION":4,"NORMAL":5,"TEXCOORD_0":6},"indices":7,"material":0}]},{"primitives":[{"mode":4,"attributes":{"POSITION":8,"NORMAL":9,"TEXCOORD_0":10},"indices":11,"material":0}]},{"primitives":[{"mode":4,"attributes":{"POSITION":12,"NORMAL":13,"TEXCOORD_0":14},"indices":15,"material":0}]},{"primitives":[{"mode":4,"attributes":{"POSITION":16,"NORMAL":17,"TEXCOORD_0":18},"indices":19,"material":0}]},{"primitives":[{"mode":4,"attributes":{"POSITION":20,"NORMAL":21,"TEXCOORD_0":22},"indices":23,"material":0}]},{"primitives":[{"mode":4,"attributes":{"POSITION":24,"NORMAL":25,"TEXCOORD_0":26},"indices":27,"material":0}]},{"primitives":[{"mode":4,"attributes":{"POSITION":28,"NORMAL":29,"TEXCOORD_0":30},"indices":31,"material":0}]},{"primitives":[{"mode":4,"attributes":{"POSITION":32,"NORMAL":33,"TEXCOORD_0":34},"indices":35,"material":0}]},{"primitives":[{"mode":4,"attributes":{"POSITION":36,"NORMAL":37,"TEXCOORD_0":38},"indices":39,"material":0}]},{"primitives":[{"mode":4,"attributes":{"POSITION":40,"NORMAL":41,"TEXCOORD_0":42},"indices":43,"material":0}]},{"primitives":[{"mode":4,"attributes":{"POSITION":44,"NORMAL":45,"TEXCOORD_0":46},"indices":47,"material":0}]}],"animations":[{"name":"idle","samplers":[{"input":48,"output":49,"interpolation":"LINEAR"},{"input":50,"output":51,"interpolation":"LINEAR"},{"input":52,"output":53,"interpolation":"LINEAR"},{"input":54,"output":55,"interpolation":"LINEAR"},{"input":56,"output":57,"interpolation":"LINEAR"},{"input":58,"output":59,"interpolation":"LINEAR"},{"input":60,"output":61,"interpolation":"LINEAR"},{"input":62,"output":63,"interpolation":"LINEAR"},{"input":64,"output":65,"interpolation":"LINEAR"}],"channels":[{"sampler":0,"target":{"node":2,"path":"rotation"}},{"sampler":1,"target":{"node":2,"path":"translation"}},{"sampler":2,"target":{"node":5,"path":"rotation"}},{"sampler":3,"target":{"node":8,"path":"rotation"}},{"sampler":4,"target":{"node":8,"path":"translation"}},{"sampler":5,"target":{"node":11,"path":"rotation"}},{"sampler":6,"target":{"node":11,"path":"translation"}},{"sampler":7,"target":{"node":14,"path":"rotation"}},{"sampler":8,"target":{"node":17,"path":"rotation"}}]},{"name":"hit","samplers":[{"input":66,"output":67,"interpolation":"LINEAR"},{"input":68,"output":69,"interpolation":"LINEAR"},{"input":70,"output":71,"interpolation":"LINEAR"},{"input":72,"output":73,"interpolation":"LINEAR"},{"input":74,"output":75,"interpolation":"LINEAR"},{"input":76,"output":77,"interpolation":"LINEAR"},{"input":78,"output":79,"interpolation":"LINEAR"},{"input":80,"output":81,"interpolation":"LINEAR"},{"input":82,"output":83,"interpolation":"LINEAR"},{"input":84,"output":85,"interpolation":"LINEAR"},{"input":86,"output":87,"interpolation":"LINEAR"},{"input":88,"output":89,"interpolation":"LINEAR"}],"channels":[{"sampler":0,"target":{"node":2,"path":"rotation"}},{"sampler":1,"target":{"node":2,"path":"translation"}},{"sampler":2,"target":{"node":5,"path":"rotation"}},{"sampler":3,"target":{"node":5,"path":"translation"}},{"sampler":4,"target":{"node":8,"path":"rotation"}},{"sampler":5,"target":{"node":8,"path":"translation"}},{"sampler":6,"target":{"node":11,"path":"rotation"}},{"sampler":7,"target":{"node":11,"path":"translation"}},{"sampler":8,"target":{"node":14,"path":"rotation"}},{"sampler":9,"target":{"node":14,"path":"translation"}},{"sampler":10,"target":{"node":17,"path":"rotation"}},{"sampler":11,"target":{"node":17,"path":"translation"}}]}]}